<svg id="Group_18611" data-name="Group 18611" xmlns="http://www.w3.org/2000/svg" width="66" height="60.075" viewBox="0 0 66 60.075">
  <path id="Path_13019" data-name="Path 13019" d="M52.98,297.143a.882.882,0,0,0-1.763-.052c0,.165-.1,4.061,1.1,6.474a.882.882,0,0,0,1.577-.789C52.891,300.767,52.978,297.193,52.98,297.143Z" transform="translate(-45.192 -260.441)" fill="rgba(67,67,67,0.7)"/>
  <path id="Path_13020" data-name="Path 13020" d="M189.442,385.081a.882.882,0,0,0-1.763-.052c0,.165-.1,4.061,1.1,6.474a.882.882,0,1,0,1.577-.789C189.352,388.7,189.44,385.127,189.442,385.081Z" transform="translate(-163.348 -336.353)" fill="rgba(67,67,67,0.7)"/>
  <path id="Path_13021" data-name="Path 13021" d="M297.509,170.286c1.515.184,3.018.433,4.454-.273a.882.882,0,1,0-.778-1.583,6.113,6.113,0,0,1-3.463.1.882.882,0,1,0-.213,1.751Z" transform="translate(-258.077 -149.508)" fill="rgba(67,67,67,0.7)"/>
  <path id="Path_13022" data-name="Path 13022" d="M322.73,202.854H322.7a.882.882,0,0,0-.026,1.763c.026,0,.145,0,.335,0a15.645,15.645,0,0,0,6.139-1.106.882.882,0,1,0-.789-1.577C326.354,202.943,322.779,202.856,322.73,202.854Z" transform="translate(-279.734 -178.646)" fill="rgba(67,67,67,0.7)"/>
  <path id="Path_13023" data-name="Path 13023" d="M63.193,63.2,52.847,57.016a7.9,7.9,0,0,0-8.856.715l-7.649-4.272,12.11-.688a6.511,6.511,0,0,0,5.565-3.8l.569-1.244a6.522,6.522,0,0,0,0-5.429l-.569-1.244a6.511,6.511,0,0,0-5.565-3.8l-13.071-.742A8.471,8.471,0,0,0,27.5,40.786a8.6,8.6,0,0,0-.867,6.279l-6.9-5.132a2.807,2.807,0,0,0-.769-.4L14.189,39.9a2.373,2.373,0,0,1-1.333-1.138l-2.485-4.693a.968.968,0,0,0-1.711.906l2.485,4.693a4.3,4.3,0,0,0,2.418,2.063l4.782,1.632a.866.866,0,0,1,.239.125l10.964,8.161a10.148,10.148,0,0,0,1.332.981l11.668,6.516A9.21,9.21,0,0,0,41.58,60.6l-9.042-5.049a26.845,26.845,0,0,1-2.708-1.521L17.776,45.055a.969.969,0,0,0-.265-.14l-6.456-2.2a.863.863,0,0,1-.487-.416L2.026,26.166a.871.871,0,0,1,1.54-.816l2.677,5.057a.985.985,0,0,0,.955.525l3.947-.376a3.682,3.682,0,0,0,3.892,2.464L26.05,31.7a10.754,10.754,0,0,1,4.9.555c3.039,1.092,5.931,1.8,9.012.205a1.882,1.882,0,0,0-.019-3.35l-6.144-3.1A12.635,12.635,0,0,0,27.038,24.7L14.3,25.771a3.692,3.692,0,0,0-3.255,2.85l-3.382.322-2.382-4.5a2.813,2.813,0,0,0-3.795-1.166A2.848,2.848,0,0,0,.315,27.072C3.171,32.465,5.9,37.946,8.894,43.264a8.57,8.57,0,0,0-6.709,8.8l.743,13.071a6.511,6.511,0,0,0,3.8,5.565,8.535,8.535,0,0,0,7.917,0,6.511,6.511,0,0,0,3.8-5.565l.743-13.071a8.514,8.514,0,0,0-.807-4.148l8.83,6.572A8.588,8.588,0,0,0,19.8,63.418l.743,13.071a6.511,6.511,0,0,0,3.8,5.565,8.535,8.535,0,0,0,7.917,0,6.511,6.511,0,0,0,3.8-5.565L36.8,63.418a8.538,8.538,0,0,0-.565-3.586L40.843,62.4a8.091,8.091,0,0,0,4.192,9.716L48.7,73.736a.968.968,0,1,0,.782-1.771l-3.661-1.616a5.843,5.843,0,0,1-3.39-5.441,7.17,7.17,0,0,1,3.027-5.853,5.843,5.843,0,0,1,6.4-.378L62.2,64.864c1.975,1.181,1.972,3.308,1.814,5.319a5.02,5.02,0,0,1-1.779,3.44c-1.548,1.291-3.272,2.528-5.389,1.594l-3-1.324a.968.968,0,0,0-.782,1.771l3,1.324c2.833,1.251,5.267-.091,7.41-1.878a6.967,6.967,0,0,0,2.469-4.774c.22-2.784-.088-5.541-2.75-7.133ZM13.277,28.324a1.694,1.694,0,0,1,1.181-.623L27.2,26.625a10.693,10.693,0,0,1,5.721,1.11l6.049,3.053c-2.52,1.259-4.909.528-7.37-.357a12.7,12.7,0,0,0-4.286-.744,12.539,12.539,0,0,0-1.5.089L14.805,31.1a1.727,1.727,0,0,1-1.528-2.775Zm3.98,23.635L16.515,65.03a4.579,4.579,0,0,1-2.674,3.915,6.551,6.551,0,0,1-6.307,0A4.58,4.58,0,0,1,4.86,65.029L4.118,51.959a6.624,6.624,0,0,1,5.976-6.92,20.948,20.948,0,0,1,1.935,8.119c0,1.324-1.489,8.11.986,8.11a.968.968,0,0,0,.868-1.4c-.931-1.894.075-4.677.083-6.708A21.979,21.979,0,0,0,12.272,45.2a6.624,6.624,0,0,1,4.985,6.755ZM34.87,63.308l-.743,13.071a4.579,4.579,0,0,1-2.674,3.915,6.551,6.551,0,0,1-6.307,0,4.58,4.58,0,0,1-2.674-3.915L21.73,63.308a6.624,6.624,0,0,1,5.976-6.92,20.948,20.948,0,0,1,1.935,8.119,24.406,24.406,0,0,1-.249,3.2,7.056,7.056,0,0,0,.365,4.367.968.968,0,1,0,1.737-.854,5.306,5.306,0,0,1-.182-3.268,26.426,26.426,0,0,0,.264-3.44,21.979,21.979,0,0,0-1.693-7.961A6.626,6.626,0,0,1,34.87,63.308ZM29.184,48.276a6.56,6.56,0,0,1-.833-2.671,22.537,22.537,0,0,1,6.475-1.845.968.968,0,0,0-.212-1.924,23.715,23.715,0,0,0-6.1,1.591,6.558,6.558,0,0,1,6.373-5c.127,0,.255,0,.382.011l13.071.742a4.58,4.58,0,0,1,3.915,2.674l.569,1.244a4.589,4.589,0,0,1,0,3.819l-.569,1.244a4.58,4.58,0,0,1-3.914,2.674l-13.071.742a6.624,6.624,0,0,1-6.086-3.305Z" transform="translate(0 -22.953)" fill="rgba(67,67,67,0.7)"/>
  <path id="Path_13024" data-name="Path 13024" d="M369.924,333.969a2.543,2.543,0,0,0,2.851-2.993,5.871,5.871,0,0,0-1.5-2.3,10.3,10.3,0,0,0-6.4-3.666c-1.491-.232-3.2-.6-4.112,1s.267,2.883,1.222,4.051a10.3,10.3,0,0,0,6.4,3.666Zm-6.579-5.021c-.438-.536-1.582-1.489-.917-2.2.472-.5,1.6-.082,2.171.007a8.543,8.543,0,0,1,5.31,3.039c.385.471,1.457,1.359,1.057,2.059s-1.71.225-2.311.132A8.543,8.543,0,0,1,363.344,328.948Z" transform="translate(-312.173 -285.146)" fill="rgba(67,67,67,0.7)"/>
</svg>
