<svg id="Group_18612" data-name="Group 18612" xmlns="http://www.w3.org/2000/svg" width="66" height="71.793" viewBox="0 0 66 71.793">
  <path id="Path_13025" data-name="Path 13025" d="M92.21,54.616V23.054a1.159,1.159,0,0,0-.64-1.036L63.781,8.123a1.16,1.16,0,0,0-1-.014L32.673,22A1.155,1.155,0,0,0,32,23.054V60.106a1.155,1.155,0,0,0,.673,1.051l30.1,13.895a1.158,1.158,0,0,0,1-.014L71.3,71.278A13.893,13.893,0,1,0,92.21,54.616ZM75.331,16.487,50.575,29.817l-6.342-2.927,25.443-13.23ZM49.368,31.81V50.245l-5.789-2.482V29.139ZM63.243,10.445l3.875,1.937L41.887,25.5a1.177,1.177,0,0,0-.262.187l-5.7-2.633ZM62.1,72.192,34.316,59.365v-34.5l6.947,3.207V48.527a1.158,1.158,0,0,0,.7,1.064l8.105,3.474a1.139,1.139,0,0,0,.456.094A1.158,1.158,0,0,0,51.684,52V32.88L62.1,37.69Zm1.138-36.528L53.205,31.032,77.864,17.754l10.6,5.3Zm7.329,33.389-6.151,3.076V37.664L89.894,24.927V53.266A13.9,13.9,0,0,0,70.572,69.052ZM84.1,77.474A11.579,11.579,0,1,1,95.684,65.9,11.579,11.579,0,0,1,84.1,77.474Z" transform="translate(-32 -8.002)" fill="rgba(67,67,67,0.7)"/>
  <path id="Path_13026" data-name="Path 13026" d="M362.64,384.335l-6.06,6.061-2.625-2.626a1.145,1.145,0,1,0-1.619,1.619l3.435,3.435a1.145,1.145,0,0,0,1.619,0l6.87-6.87a1.145,1.145,0,1,0-1.619-1.619Z" transform="translate(-305.466 -330.387)" fill="rgba(67,67,67,0.7)"/>
</svg>
