<svg xmlns="http://www.w3.org/2000/svg" xmlns:xlink="http://www.w3.org/1999/xlink" width="66" height="66" viewBox="0 0 66 66">
  <defs>
    <clipPath id="clip-path">
      <path id="path3786" d="M0-682.665H66v66H0Z" transform="translate(0 682.665)" fill="#7b7b7b"/>
    </clipPath>
  </defs>
  <g id="svgexport-7" transform="translate(-27 -0.002)">
    <g id="g3780" transform="translate(27 0.002)">
      <g id="g3782">
        <g id="g3784" clip-path="url(#clip-path)">
          <g id="g3790" transform="translate(13.664 25.975)">
            <path id="path3792" d="M-45.2-327.658h-27.07a1.15,1.15,0,0,1-1.15-1.15,1.15,1.15,0,0,1,1.15-1.15H-45.2a2.72,2.72,0,0,0,2.717-2.717v-30.131a9.922,9.922,0,0,0-3.257.841A12.4,12.4,0,0,1-51-360.916a12.4,12.4,0,0,1-5.261-1.049,10.047,10.047,0,0,0-4.407-.885,10.047,10.047,0,0,0-4.407.885,12.4,12.4,0,0,1-5.261,1.049,12.4,12.4,0,0,1-5.261-1.049,9.924,9.924,0,0,0-3.257-.841v30.131a2.72,2.72,0,0,0,2.717,2.717,1.15,1.15,0,0,1,1.15,1.15,1.15,1.15,0,0,1-1.15,1.15,5.023,5.023,0,0,1-5.017-5.017V-364a1.15,1.15,0,0,1,1.15-1.15,12.4,12.4,0,0,1,5.261,1.049,10.048,10.048,0,0,0,4.407.885,10.047,10.047,0,0,0,4.407-.885,12.4,12.4,0,0,1,5.261-1.049A12.4,12.4,0,0,1-55.4-364.1a10.047,10.047,0,0,0,4.407.885,10.047,10.047,0,0,0,4.407-.885,12.4,12.4,0,0,1,5.261-1.049,1.15,1.15,0,0,1,1.15,1.15v31.324A5.023,5.023,0,0,1-45.2-327.658Z" transform="translate(80 363.999)" fill="#7b7b7b"/>
          </g>
          <path id="Union_6" data-name="Union 6" d="M23029.889,15874.968a8.9,8.9,0,0,1-8.889-8.887v-35.063a8.9,8.9,0,0,1,7.736-8.806v-1.864a3.082,3.082,0,0,1,0-5.721v-1.007a5.025,5.025,0,0,1,5.02-5.02h23.2a5.025,5.025,0,0,1,5.02,5.02v1.007a3.08,3.08,0,0,1,0,5.718v1.866a8.9,8.9,0,0,1,7.734,8.807v35.063a8.9,8.9,0,0,1-8.887,8.887Zm-6.584-43.95v35.063a6.591,6.591,0,0,0,6.584,6.588h30.934a6.591,6.591,0,0,0,6.584-6.588v-35.063a6.59,6.59,0,0,0-6.584-6.582h-30.934A6.59,6.59,0,0,0,23023.3,15831.018Zm5.8-13.53a.78.78,0,0,0,.781.781,1.151,1.151,0,0,1,1.146,1.152v2.716h28.635v-1.569h-25.914a1.149,1.149,0,1,1,0-2.3h27.066a.784.784,0,1,0,0-1.568h-30.934A.782.782,0,0,0,23029.107,15817.487Zm1.928-3.867v.781h28.641v-.781a2.72,2.72,0,0,0-2.721-2.716h-23.2A2.72,2.72,0,0,0,23031.035,15813.62Z" transform="translate(-23012.354 -15808.784)" fill="#7b7b7b"/>
        </g>
      </g>
    </g>
  </g>
</svg>
