<svg xmlns="http://www.w3.org/2000/svg" width="66" height="62.117" viewBox="0 0 66 62.117">
  <g id="svgexport-9" transform="translate(-0.124 -15.179)">
    <g id="_x32_2_Dates" transform="translate(0.124 15.179)">
      <g id="Group_18616" data-name="Group 18616">
        <g id="Group_18615" data-name="Group 18615">
          <path id="Path_13045" data-name="Path 13045" d="M307.565,53.7c2.426.884,5.592.648,6.4-1.579h0c.826-2.265-1.54-4.475-3.886-5.33s-5.582-.68-6.4,1.579C302.973,50.31,304.68,52.651,307.565,53.7Zm-2.592-4.858c.52-1.428,3.061-1.332,4.639-.757,1.5.546,3.588,2.127,3.064,3.564-.427,1.172-2.551,1.519-4.639.757S304.546,50.016,304.973,48.844Z" transform="translate(-264.399 -42.298)" fill="rgba(67,67,67,0.7)"/>
          <path id="Path_13046" data-name="Path 13046" d="M53.355,139.115c-1.293-1.99-4.448-1.494-6.6-.1-2.574,1.673-3.711,4.339-2.588,6.067,1.312,2.019,4.486,1.469,6.595.1S54.667,141.133,53.355,139.115Zm-8.029,5.218c-.679-1.045.321-2.951,2.184-4.162,1.313-.853,3.85-1.6,4.691-.305s-.853,3.3-2.184,4.162c-1.863,1.21-4.011,1.35-4.69.305Z" transform="translate(-38.109 -121.981)" fill="rgba(67,67,67,0.7)"/>
          <path id="Path_13047" data-name="Path 13047" d="M85.227,270.933A107.2,107.2,0,0,1,73.3,256.882a.688.688,0,1,0-1.118.8,108.614,108.614,0,0,0,12.1,14.24.689.689,0,1,0,.955-.992Z" transform="translate(-62.763 -225.471)" fill="rgba(67,67,67,0.7)"/>
          <path id="Path_13048" data-name="Path 13048" d="M62.789,45.526c-2.592-3.331-5.7-5.21-9.112-5.635.433-.983.841-1.969,1.2-2.953,3.906-10.715.238-17.748-7.822-20.686-9.185-3.349-15.869,1.392-19.3,10.8a50.677,50.677,0,0,0-1.669,5.664c-5.532-6.691-12.436-8.016-19.3-3.552-7.691,5-8.773,12.987-2.97,21.916,5.259,8.092,13.634,15.436,20.556,17.74a7.8,7.8,0,0,0,1.379,5.527c2.991,3.844,9.493,3.233,14.221,2.046a52.668,52.668,0,0,0,18.459-9.185c9-7,9.63-14.911,4.362-21.681Zm-33.74-18c3.127-8.579,8.991-13.094,17.536-9.98,8.526,3.107,10.133,10.329,7,18.923-.4,1.111-.873,2.223-1.373,3.33a15.667,15.667,0,0,0-6.852,1.691c1.1-2.221,2.152-4.528,3.122-6.847a.688.688,0,0,0-1.269-.531c-1.226,2.93-2.591,5.832-4,8.561A43.069,43.069,0,0,0,36,48.592l4.823-13.232a.688.688,0,1,0-1.292-.471l-5.2,14.266a53.433,53.433,0,0,0-2.2-6.078A116.9,116.9,0,0,1,35.443,29.82a.688.688,0,0,0-1.313-.41c-1.205,3.857-2.212,7.821-2.974,11.544A47.322,47.322,0,0,0,27.17,34.12a50.689,50.689,0,0,1,1.879-6.6ZM4.966,50.33C-.438,42.014.473,34.907,7.533,30.318,15.1,25.4,21.862,28.4,26.863,36.1a52.923,52.923,0,0,1,6.625,15.175c-1.1,1.257-2.136,2.553-3.085,3.865a111.294,111.294,0,0,0-7.667-15.7.688.688,0,1,0-1.187.7,107.6,107.6,0,0,1,7.9,16.372c-.724,1.077-1.386,2.159-1.977,3.233L18.306,45.633a.688.688,0,1,0-1.153.75l9.59,14.756a23.86,23.86,0,0,0-2.2,6.34C18.047,65.2,9.948,58,4.966,50.33ZM57.582,66.122a51.228,51.228,0,0,1-17.948,8.936c-6.162,1.548-10.827.98-12.8-1.556C22.392,67.793,31.25,53.521,41.545,45.51c7.131-5.548,14.544-6.355,20.158.86,5.573,7.162,3.1,14.133-4.121,19.751Z" transform="translate(-0.124 -15.179)" fill="rgba(67,67,67,0.7)"/>
          <path id="Path_13049" data-name="Path 13049" d="M414.053,249.951c-1.538-1.977-4.364-3.54-6.265-2.064s-1.07,4.612.461,6.58,4.373,3.536,6.265,2.064S415.584,251.919,414.053,249.951Zm-.384,5.493c-1.213.943-3.35-.56-4.333-1.823s-1.917-3.7-.7-4.648,3.339.546,4.332,1.823C413.94,252.048,414.884,254.5,413.668,255.444Z" transform="translate(-354.266 -217.372)" fill="rgba(67,67,67,0.7)"/>
          <path id="Path_13050" data-name="Path 13050" d="M244.987,296.7a107.215,107.215,0,0,1,12.988-13.08.689.689,0,0,0-.9-1.046,108.609,108.609,0,0,0-13.162,13.26.688.688,0,1,0,1.07.867Z" transform="translate(-212.351 -247.953)" fill="rgba(67,67,67,0.7)"/>
          <path id="Path_13051" data-name="Path 13051" d="M303.715,367.594a107.118,107.118,0,0,1-15.872,9.374.688.688,0,0,0,.578,1.25,108.56,108.56,0,0,0,16.089-9.5.689.689,0,0,0-.794-1.125Z" transform="translate(-250.401 -322.051)" fill="rgba(67,67,67,0.7)"/>
          <path id="Path_13052" data-name="Path 13052" d="M261.539,341.06a.687.687,0,0,0-.966-.12l-14.445,11.239a.688.688,0,0,0,.846,1.087l14.445-11.239A.689.689,0,0,0,261.539,341.06Z" transform="translate(-214.18 -298.82)" fill="rgba(67,67,67,0.7)"/>
        </g>
      </g>
    </g>
  </g>
</svg>
